<svg xmlns="http://www.w3.org/2000/svg" version="1.1" xmlns:xlink="http://www.w3.org/1999/xlink" xmlns:svgjs="http://svgjs.com/svgjs" width="1440" height="560" preserveAspectRatio="none" viewBox="0 0 1440 560"><g mask="url(&quot;#SvgjsMask1003&quot;)" fill="none"><rect width="1440" height="560" x="0" y="0" fill="url(#SvgjsLinearGradient1004)"></rect><path d="M-52.3 350.39L-52.3 350.39" stroke="#132e65" stroke-width="1.5"></path><path d="M-52.3 350.39L63.57 405.29" stroke="#132e65" stroke-width="1.5"></path><path d="M-52.3 350.39L-39.42 489.75" stroke="#132e65" stroke-width="1.5"></path><path d="M-52.3 350.39L89.32 518.37" stroke="#132e65" stroke-width="1.5"></path><path d="M-39.42 489.75L-39.42 489.75" stroke="#132e65" stroke-width="1.5"></path><path d="M-39.42 489.75L89.32 518.37" stroke="#132e65" stroke-width="1.5"></path><path d="M-39.42 489.75L63.57 405.29" stroke="#132e65" stroke-width="1.5"></path><path d="M-75.99 650.8L-75.99 650.8" stroke="#132e65" stroke-width="1.5"></path><path d="M-75.99 650.8L48 683.75" stroke="#132e65" stroke-width="1.5"></path><path d="M-75.99 650.8L-39.42 489.75" stroke="#132e65" stroke-width="1.5"></path><path d="M-75.99 650.8L89.32 518.37" stroke="#132e65" stroke-width="1.5"></path><path d="M-75.99 650.8L63.57 405.29" stroke="#132e65" stroke-width="1.5"></path><path d="M-75.99 650.8L-52.3 350.39" stroke="#132e65" stroke-width="1.5"></path><path d="M63.57 405.29L63.57 405.29" stroke="#132e65" stroke-width="1.5"></path><path d="M63.57 405.29L89.32 518.37" stroke="#132e65" stroke-width="1.5"></path><path d="M63.57 405.29L204.01 401.63" stroke="#132e65" stroke-width="1.5"></path><path d="M89.32 518.37L89.32 518.37" stroke="#132e65" stroke-width="1.5"></path><path d="M89.32 518.37L234.23 507.13" stroke="#132e65" stroke-width="1.5"></path><path d="M48 683.75L48 683.75" stroke="#132e65" stroke-width="1.5"></path><path d="M48 683.75L89.32 518.37" stroke="#132e65" stroke-width="1.5"></path><path d="M48 683.75L233.63 656.97" stroke="#132e65" stroke-width="1.5"></path><path d="M48 683.75L-39.42 489.75" stroke="#132e65" stroke-width="1.5"></path><path d="M204.01 401.63L204.01 401.63" stroke="#132e65" stroke-width="1.5"></path><path d="M204.01 401.63L234.23 507.13" stroke="#132e65" stroke-width="1.5"></path><path d="M234.23 507.13L234.23 507.13" stroke="#132e65" stroke-width="1.5"></path><path d="M233.63 656.97L233.63 656.97" stroke="#132e65" stroke-width="1.5"></path><path d="M233.63 656.97L234.23 507.13" stroke="#132e65" stroke-width="1.5"></path><path d="M233.63 656.97L381.03 697.07" stroke="#132e65" stroke-width="1.5"></path><path d="M388.47 356.53L388.47 356.53" stroke="#132e65" stroke-width="1.5"></path><path d="M388.47 356.53L524.22 388.75" stroke="#132e65" stroke-width="1.5"></path><path d="M388.47 356.53L204.01 401.63" stroke="#132e65" stroke-width="1.5"></path><path d="M388.47 356.53L394.33 558.54" stroke="#132e65" stroke-width="1.5"></path><path d="M388.47 356.53L234.23 507.13" stroke="#132e65" stroke-width="1.5"></path><path d="M388.47 356.53L678.8 344.16" stroke="#132e65" stroke-width="1.5"></path><path d="M394.33 558.54L394.33 558.54" stroke="#132e65" stroke-width="1.5"></path><path d="M394.33 558.54L381.03 697.07" stroke="#132e65" stroke-width="1.5"></path><path d="M394.33 558.54L234.23 507.13" stroke="#132e65" stroke-width="1.5"></path><path d="M394.33 558.54L233.63 656.97" stroke="#132e65" stroke-width="1.5"></path><path d="M394.33 558.54L542.45 684.45" stroke="#132e65" stroke-width="1.5"></path><path d="M381.03 697.07L381.03 697.07" stroke="#132e65" stroke-width="1.5"></path><path d="M381.03 697.07L542.45 684.45" stroke="#132e65" stroke-width="1.5"></path><path d="M381.03 697.07L234.23 507.13" stroke="#132e65" stroke-width="1.5"></path><path d="M524.22 388.75L524.22 388.75" stroke="#132e65" stroke-width="1.5"></path><path d="M524.22 388.75L678.8 344.16" stroke="#132e65" stroke-width="1.5"></path><path d="M524.22 388.75L642.77 499.68" stroke="#132e65" stroke-width="1.5"></path><path d="M524.22 388.75L394.33 558.54" stroke="#132e65" stroke-width="1.5"></path><path d="M524.22 388.75L542.45 684.45" stroke="#132e65" stroke-width="1.5"></path><path d="M542.45 684.45L542.45 684.45" stroke="#132e65" stroke-width="1.5"></path><path d="M542.45 684.45L663.18 659.26" stroke="#132e65" stroke-width="1.5"></path><path d="M542.45 684.45L642.77 499.68" stroke="#132e65" stroke-width="1.5"></path><path d="M678.8 344.16L678.8 344.16" stroke="#132e65" stroke-width="1.5"></path><path d="M678.8 344.16L642.77 499.68" stroke="#132e65" stroke-width="1.5"></path><path d="M642.77 499.68L642.77 499.68" stroke="#132e65" stroke-width="1.5"></path><path d="M642.77 499.68L795.73 517.93" stroke="#132e65" stroke-width="1.5"></path><path d="M642.77 499.68L663.18 659.26" stroke="#132e65" stroke-width="1.5"></path><path d="M663.18 659.26L663.18 659.26" stroke="#132e65" stroke-width="1.5"></path><path d="M663.18 659.26L832.98 645.85" stroke="#132e65" stroke-width="1.5"></path><path d="M663.18 659.26L795.73 517.93" stroke="#132e65" stroke-width="1.5"></path><path d="M663.18 659.26L381.03 697.07" stroke="#132e65" stroke-width="1.5"></path><path d="M840.26 229.7L840.26 229.7" stroke="#132e65" stroke-width="1.5"></path><path d="M840.26 229.7L956.58 228.42" stroke="#132e65" stroke-width="1.5"></path><path d="M840.26 229.7L836.92 377" stroke="#132e65" stroke-width="1.5"></path><path d="M840.26 229.7L678.8 344.16" stroke="#132e65" stroke-width="1.5"></path><path d="M840.26 229.7L1011.43 48.46" stroke="#132e65" stroke-width="1.5"></path><path d="M836.92 377L836.92 377" stroke="#132e65" stroke-width="1.5"></path><path d="M836.92 377L795.73 517.93" stroke="#132e65" stroke-width="1.5"></path><path d="M795.73 517.93L795.73 517.93" stroke="#132e65" stroke-width="1.5"></path><path d="M795.73 517.93L832.98 645.85" stroke="#132e65" stroke-width="1.5"></path><path d="M795.73 517.93L982.65 497.03" stroke="#132e65" stroke-width="1.5"></path><path d="M832.98 645.85L832.98 645.85" stroke="#132e65" stroke-width="1.5"></path><path d="M984.92 -83.01L984.92 -83.01" stroke="#132e65" stroke-width="1.5"></path><path d="M984.92 -83.01L1104.57 -38.8" stroke="#132e65" stroke-width="1.5"></path><path d="M984.92 -83.01L1011.43 48.46" stroke="#132e65" stroke-width="1.5"></path><path d="M984.92 -83.01L1130.96 91.26" stroke="#132e65" stroke-width="1.5"></path><path d="M984.92 -83.01L1238.52 -111.24" stroke="#132e65" stroke-width="1.5"></path><path d="M984.92 -83.01L1251.54 41.26" stroke="#132e65" stroke-width="1.5"></path><path d="M1011.43 48.46L1011.43 48.46" stroke="#132e65" stroke-width="1.5"></path><path d="M1011.43 48.46L1130.96 91.26" stroke="#132e65" stroke-width="1.5"></path><path d="M1011.43 48.46L1104.57 -38.8" stroke="#132e65" stroke-width="1.5"></path><path d="M956.58 228.42L956.58 228.42" stroke="#132e65" stroke-width="1.5"></path><path d="M956.58 228.42L1096.09 259.46" stroke="#132e65" stroke-width="1.5"></path><path d="M956.58 228.42L1011.43 48.46" stroke="#132e65" stroke-width="1.5"></path><path d="M956.58 228.42L836.92 377" stroke="#132e65" stroke-width="1.5"></path><path d="M982.65 497.03L982.65 497.03" stroke="#132e65" stroke-width="1.5"></path><path d="M982.65 497.03L1104.82 542.62" stroke="#132e65" stroke-width="1.5"></path><path d="M982.65 497.03L977.64 640.42" stroke="#132e65" stroke-width="1.5"></path><path d="M977.64 640.42L977.64 640.42" stroke="#132e65" stroke-width="1.5"></path><path d="M977.64 640.42L1109.94 667.36" stroke="#132e65" stroke-width="1.5"></path><path d="M977.64 640.42L832.98 645.85" stroke="#132e65" stroke-width="1.5"></path><path d="M977.64 640.42L1104.82 542.62" stroke="#132e65" stroke-width="1.5"></path><path d="M1104.57 -38.8L1104.57 -38.8" stroke="#132e65" stroke-width="1.5"></path><path d="M1104.57 -38.8L1130.96 91.26" stroke="#132e65" stroke-width="1.5"></path><path d="M1104.57 -38.8L1238.52 -111.24" stroke="#132e65" stroke-width="1.5"></path><path d="M1104.57 -38.8L1251.54 41.26" stroke="#132e65" stroke-width="1.5"></path><path d="M1104.57 -38.8L1096.09 259.46" stroke="#132e65" stroke-width="1.5"></path><path d="M1130.96 91.26L1130.96 91.26" stroke="#132e65" stroke-width="1.5"></path><path d="M1130.96 91.26L1251.54 41.26" stroke="#132e65" stroke-width="1.5"></path><path d="M1096.09 259.46L1096.09 259.46" stroke="#132e65" stroke-width="1.5"></path><path d="M1096.09 259.46L1130.96 91.26" stroke="#132e65" stroke-width="1.5"></path><path d="M1096.09 259.46L1271.49 214.9" stroke="#132e65" stroke-width="1.5"></path><path d="M1104.82 542.62L1104.82 542.62" stroke="#132e65" stroke-width="1.5"></path><path d="M1104.82 542.62L1109.94 667.36" stroke="#132e65" stroke-width="1.5"></path><path d="M1109.94 667.36L1109.94 667.36" stroke="#132e65" stroke-width="1.5"></path><path d="M1109.94 667.36L1276.38 652.95" stroke="#132e65" stroke-width="1.5"></path><path d="M1109.94 667.36L982.65 497.03" stroke="#132e65" stroke-width="1.5"></path><path d="M1109.94 667.36L1278.3 522.32" stroke="#132e65" stroke-width="1.5"></path><path d="M1109.94 667.36L832.98 645.85" stroke="#132e65" stroke-width="1.5"></path><path d="M1238.52 -111.24L1238.52 -111.24" stroke="#132e65" stroke-width="1.5"></path><path d="M1238.52 -111.24L1251.54 41.26" stroke="#132e65" stroke-width="1.5"></path><path d="M1238.52 -111.24L1451.94 -83.96" stroke="#132e65" stroke-width="1.5"></path><path d="M1251.54 41.26L1251.54 41.26" stroke="#132e65" stroke-width="1.5"></path><path d="M1271.49 214.9L1271.49 214.9" stroke="#132e65" stroke-width="1.5"></path><path d="M1271.49 214.9L1251.54 41.26" stroke="#132e65" stroke-width="1.5"></path><path d="M1271.49 214.9L1451.9 250.61" stroke="#132e65" stroke-width="1.5"></path><path d="M1271.49 214.9L1130.96 91.26" stroke="#132e65" stroke-width="1.5"></path><path d="M1278.3 522.32L1278.3 522.32" stroke="#132e65" stroke-width="1.5"></path><path d="M1278.3 522.32L1276.38 652.95" stroke="#132e65" stroke-width="1.5"></path><path d="M1278.3 522.32L1413.78 530.66" stroke="#132e65" stroke-width="1.5"></path><path d="M1276.38 652.95L1276.38 652.95" stroke="#132e65" stroke-width="1.5"></path><path d="M1276.38 652.95L1444.52 687.98" stroke="#132e65" stroke-width="1.5"></path><path d="M1276.38 652.95L1413.78 530.66" stroke="#132e65" stroke-width="1.5"></path><path d="M1451.94 -83.96L1451.94 -83.96" stroke="#132e65" stroke-width="1.5"></path><path d="M1451.94 -83.96L1568.36 -87.91" stroke="#132e65" stroke-width="1.5"></path><path d="M1451.94 -83.96L1410.01 46.64" stroke="#132e65" stroke-width="1.5"></path><path d="M1451.94 -83.96L1577.43 72.18" stroke="#132e65" stroke-width="1.5"></path><path d="M1410.01 46.64L1410.01 46.64" stroke="#132e65" stroke-width="1.5"></path><path d="M1410.01 46.64L1251.54 41.26" stroke="#132e65" stroke-width="1.5"></path><path d="M1410.01 46.64L1577.43 72.18" stroke="#132e65" stroke-width="1.5"></path><path d="M1410.01 46.64L1568.36 -87.91" stroke="#132e65" stroke-width="1.5"></path><path d="M1410.01 46.64L1451.9 250.61" stroke="#132e65" stroke-width="1.5"></path><path d="M1410.01 46.64L1271.49 214.9" stroke="#132e65" stroke-width="1.5"></path><path d="M1451.9 250.61L1451.9 250.61" stroke="#132e65" stroke-width="1.5"></path><path d="M1451.9 250.61L1570.85 238.67" stroke="#132e65" stroke-width="1.5"></path><path d="M1451.9 250.61L1538.45 360.34" stroke="#132e65" stroke-width="1.5"></path><path d="M1451.9 250.61L1405.52 390.77" stroke="#132e65" stroke-width="1.5"></path><path d="M1405.52 390.77L1405.52 390.77" stroke="#132e65" stroke-width="1.5"></path><path d="M1405.52 390.77L1538.45 360.34" stroke="#132e65" stroke-width="1.5"></path><path d="M1405.52 390.77L1413.78 530.66" stroke="#132e65" stroke-width="1.5"></path><path d="M1413.78 530.66L1413.78 530.66" stroke="#132e65" stroke-width="1.5"></path><path d="M1413.78 530.66L1444.52 687.98" stroke="#132e65" stroke-width="1.5"></path><path d="M1444.52 687.98L1444.52 687.98" stroke="#132e65" stroke-width="1.5"></path><path d="M1444.52 687.98L1590.58 674.6" stroke="#132e65" stroke-width="1.5"></path><path d="M1568.36 -87.91L1568.36 -87.91" stroke="#132e65" stroke-width="1.5"></path><path d="M1568.36 -87.91L1577.43 72.18" stroke="#132e65" stroke-width="1.5"></path><path d="M1577.43 72.18L1577.43 72.18" stroke="#132e65" stroke-width="1.5"></path><path d="M1577.43 72.18L1570.85 238.67" stroke="#132e65" stroke-width="1.5"></path><path d="M1577.43 72.18L1451.9 250.61" stroke="#132e65" stroke-width="1.5"></path><path d="M1577.43 72.18L1538.45 360.34" stroke="#132e65" stroke-width="1.5"></path><path d="M1570.85 238.67L1570.85 238.67" stroke="#132e65" stroke-width="1.5"></path><path d="M1570.85 238.67L1538.45 360.34" stroke="#132e65" stroke-width="1.5"></path><path d="M1538.45 360.34L1538.45 360.34" stroke="#132e65" stroke-width="1.5"></path><path d="M1538.45 360.34L1413.78 530.66" stroke="#132e65" stroke-width="1.5"></path><path d="M1590.58 674.6L1590.58 674.6" stroke="#132e65" stroke-width="1.5"></path><path d="M1590.58 674.6L1413.78 530.66" stroke="#132e65" stroke-width="1.5"></path><path d="M1590.58 674.6L1276.38 652.95" stroke="#132e65" stroke-width="1.5"></path><path d="M1590.58 674.6L1538.45 360.34" stroke="#132e65" stroke-width="1.5"></path><circle r="5" cx="-52.3" cy="350.39" fill="#132e65"></circle><circle r="5" cx="-39.42" cy="489.75" fill="#132e65"></circle><circle r="5" cx="-75.99" cy="650.8" fill="#132e65"></circle><circle r="5" cx="63.57" cy="405.29" fill="#132e65"></circle><circle r="5" cx="89.32" cy="518.37" fill="#132e65"></circle><circle r="5" cx="48" cy="683.75" fill="#132e65"></circle><circle r="5" cx="204.01" cy="401.63" fill="#132e65"></circle><circle r="5" cx="234.23" cy="507.13" fill="#132e65"></circle><circle r="5" cx="233.63" cy="656.97" fill="#132e65"></circle><circle r="5" cx="388.47" cy="356.53" fill="#132e65"></circle><circle r="5" cx="394.33" cy="558.54" fill="#132e65"></circle><circle r="5" cx="381.03" cy="697.07" fill="#132e65"></circle><circle r="5" cx="524.22" cy="388.75" fill="#132e65"></circle><circle r="5" cx="542.45" cy="684.45" fill="#132e65"></circle><circle r="5" cx="678.8" cy="344.16" fill="#132e65"></circle><circle r="5" cx="642.77" cy="499.68" fill="#132e65"></circle><circle r="5" cx="663.18" cy="659.26" fill="#132e65"></circle><circle r="5" cx="840.26" cy="229.7" fill="#132e65"></circle><circle r="5" cx="836.92" cy="377" fill="#132e65"></circle><circle r="5" cx="795.73" cy="517.93" fill="#132e65"></circle><circle r="5" cx="832.98" cy="645.85" fill="#132e65"></circle><circle r="5" cx="984.92" cy="-83.01" fill="#132e65"></circle><circle r="5" cx="1011.43" cy="48.46" fill="#132e65"></circle><circle r="5" cx="956.58" cy="228.42" fill="#132e65"></circle><circle r="5" cx="982.65" cy="497.03" fill="#132e65"></circle><circle r="5" cx="977.64" cy="640.42" fill="#132e65"></circle><circle r="5" cx="1104.57" cy="-38.8" fill="#132e65"></circle><circle r="5" cx="1130.96" cy="91.26" fill="#132e65"></circle><circle r="5" cx="1096.09" cy="259.46" fill="#132e65"></circle><circle r="5" cx="1104.82" cy="542.62" fill="#132e65"></circle><circle r="5" cx="1109.94" cy="667.36" fill="#132e65"></circle><circle r="5" cx="1238.52" cy="-111.24" fill="#132e65"></circle><circle r="5" cx="1251.54" cy="41.26" fill="#132e65"></circle><circle r="5" cx="1271.49" cy="214.9" fill="#132e65"></circle><circle r="5" cx="1278.3" cy="522.32" fill="#132e65"></circle><circle r="5" cx="1276.38" cy="652.95" fill="#132e65"></circle><circle r="5" cx="1451.94" cy="-83.96" fill="#132e65"></circle><circle r="5" cx="1410.01" cy="46.64" fill="#132e65"></circle><circle r="5" cx="1451.9" cy="250.61" fill="#132e65"></circle><circle r="5" cx="1405.52" cy="390.77" fill="#132e65"></circle><circle r="5" cx="1413.78" cy="530.66" fill="#132e65"></circle><circle r="5" cx="1444.52" cy="687.98" fill="#132e65"></circle><circle r="5" cx="1568.36" cy="-87.91" fill="#132e65"></circle><circle r="5" cx="1577.43" cy="72.18" fill="#132e65"></circle><circle r="5" cx="1570.85" cy="238.67" fill="#132e65"></circle><circle r="5" cx="1538.45" cy="360.34" fill="#132e65"></circle><circle r="5" cx="1590.58" cy="674.6" fill="#132e65"></circle><path d="M54.1 502.22L54.1 502.22" stroke="hsl(228.5, 77.2%, 51.5%)" stroke-width="1.5"></path><path d="M54.1 502.22L-41.87 509" stroke="hsl(228.5, 77.2%, 51.5%)" stroke-width="1.5"></path><path d="M54.1 502.22L92.81 655.87" stroke="hsl(228.5, 77.2%, 51.5%)" stroke-width="1.5"></path><path d="M395.03 676.14L395.03 676.14" stroke="hsl(228.5, 77.2%, 51.5%)" stroke-width="1.5"></path><path d="M395.03 676.14L259.85 654.03" stroke="hsl(228.5, 77.2%, 51.5%)" stroke-width="1.5"></path><path d="M395.03 676.14L341.98 537.4" stroke="hsl(228.5, 77.2%, 51.5%)" stroke-width="1.5"></path><path d="M395.03 676.14L556.52 650.24" stroke="hsl(228.5, 77.2%, 51.5%)" stroke-width="1.5"></path><path d="M395.03 676.14L546.93 540.19" stroke="hsl(228.5, 77.2%, 51.5%)" stroke-width="1.5"></path><path d="M546.93 540.19L546.93 540.19" stroke="hsl(228.5, 77.2%, 51.5%)" stroke-width="1.5"></path><path d="M546.93 540.19L639.86 545.73" stroke="hsl(228.5, 77.2%, 51.5%)" stroke-width="1.5"></path><path d="M546.93 540.19L556.52 650.24" stroke="hsl(228.5, 77.2%, 51.5%)" stroke-width="1.5"></path><path d="M546.93 540.19L661.08 652.23" stroke="hsl(228.5, 77.2%, 51.5%)" stroke-width="1.5"></path><path d="M546.93 540.19L341.98 537.4" stroke="hsl(228.5, 77.2%, 51.5%)" stroke-width="1.5"></path><path d="M546.93 540.19L707.81 412.05" stroke="hsl(228.5, 77.2%, 51.5%)" stroke-width="1.5"></path><path d="M556.52 650.24L556.52 650.24" stroke="hsl(228.5, 77.2%, 51.5%)" stroke-width="1.5"></path><path d="M556.52 650.24L661.08 652.23" stroke="hsl(228.5, 77.2%, 51.5%)" stroke-width="1.5"></path><path d="M661.08 652.23L661.08 652.23" stroke="hsl(228.5, 77.2%, 51.5%)" stroke-width="1.5"></path><path d="M661.08 652.23L639.86 545.73" stroke="hsl(228.5, 77.2%, 51.5%)" stroke-width="1.5"></path><path d="M661.08 652.23L798.09 527.59" stroke="hsl(228.5, 77.2%, 51.5%)" stroke-width="1.5"></path><path d="M661.08 652.23L853.88 708.9" stroke="hsl(228.5, 77.2%, 51.5%)" stroke-width="1.5"></path><path d="M1156.18 709.79L1156.18 709.79" stroke="hsl(228.5, 77.2%, 51.5%)" stroke-width="1.5"></path><path d="M1156.18 709.79L1307.7 659.58" stroke="hsl(228.5, 77.2%, 51.5%)" stroke-width="1.5"></path><path d="M1156.18 709.79L990.95 680.96" stroke="hsl(228.5, 77.2%, 51.5%)" stroke-width="1.5"></path><path d="M1156.18 709.79L1105.73 549.29" stroke="hsl(228.5, 77.2%, 51.5%)" stroke-width="1.5"></path><path d="M1156.18 709.79L1009.52 545.19" stroke="hsl(228.5, 77.2%, 51.5%)" stroke-width="1.5"></path><path d="M1156.18 709.79L1238.91 500.45" stroke="hsl(228.5, 77.2%, 51.5%)" stroke-width="1.5"></path><path d="M1156.18 709.79L1425.58 670.74" stroke="hsl(228.5, 77.2%, 51.5%)" stroke-width="1.5"></path><path d="M1238.91 500.45L1238.91 500.45" stroke="hsl(228.5, 77.2%, 51.5%)" stroke-width="1.5"></path><path d="M1238.91 500.45L1105.73 549.29" stroke="hsl(228.5, 77.2%, 51.5%)" stroke-width="1.5"></path><path d="M1238.91 500.45L1123.18 398.2" stroke="hsl(228.5, 77.2%, 51.5%)" stroke-width="1.5"></path><path d="M1238.91 500.45L1307.7 659.58" stroke="hsl(228.5, 77.2%, 51.5%)" stroke-width="1.5"></path><path d="M1238.91 500.45L1427.59 409.79" stroke="hsl(228.5, 77.2%, 51.5%)" stroke-width="1.5"></path><path d="M1441.67 -44.25L1441.67 -44.25" stroke="hsl(228.5, 77.2%, 51.5%)" stroke-width="1.5"></path><path d="M1441.67 -44.25L1564.85 -90.55" stroke="hsl(228.5, 77.2%, 51.5%)" stroke-width="1.5"></path><path d="M1441.67 -44.25L1308.97 -49.6" stroke="hsl(228.5, 77.2%, 51.5%)" stroke-width="1.5"></path><path d="M1441.67 -44.25L1295.17 48.76" stroke="hsl(228.5, 77.2%, 51.5%)" stroke-width="1.5"></path><path d="M1441.67 -44.25L1586.9 68.51" stroke="hsl(228.5, 77.2%, 51.5%)" stroke-width="1.5"></path><path d="M1458.83 243.05L1458.83 243.05" stroke="hsl(228.5, 77.2%, 51.5%)" stroke-width="1.5"></path><path d="M1458.83 243.05L1610.28 193.9" stroke="hsl(228.5, 77.2%, 51.5%)" stroke-width="1.5"></path><path d="M1458.83 243.05L1294.53 260.37" stroke="hsl(228.5, 77.2%, 51.5%)" stroke-width="1.5"></path><path d="M1458.83 243.05L1427.59 409.79" stroke="hsl(228.5, 77.2%, 51.5%)" stroke-width="1.5"></path><path d="M1458.83 243.05L1542.7 409.53" stroke="hsl(228.5, 77.2%, 51.5%)" stroke-width="1.5"></path><path d="M1458.83 243.05L1586.9 68.51" stroke="hsl(228.5, 77.2%, 51.5%)" stroke-width="1.5"></path><path d="M1458.83 243.05L1452.21 489.18" stroke="hsl(228.5, 77.2%, 51.5%)" stroke-width="1.5"></path><path d="M1586.9 68.51L1586.9 68.51" stroke="hsl(228.5, 77.2%, 51.5%)" stroke-width="1.5"></path><path d="M1586.9 68.51L1610.28 193.9" stroke="hsl(228.5, 77.2%, 51.5%)" stroke-width="1.5"></path><path d="M1586.9 68.51L1564.85 -90.55" stroke="hsl(228.5, 77.2%, 51.5%)" stroke-width="1.5"></path><path d="M1586.9 68.51L1295.17 48.76" stroke="hsl(228.5, 77.2%, 51.5%)" stroke-width="1.5"></path><path d="M1586.9 68.51L1308.97 -49.6" stroke="hsl(228.5, 77.2%, 51.5%)" stroke-width="1.5"></path><path d="M1571.5 553.05L1571.5 553.05" stroke="hsl(228.5, 77.2%, 51.5%)" stroke-width="1.5"></path><path d="M1571.5 553.05L1452.21 489.18" stroke="hsl(228.5, 77.2%, 51.5%)" stroke-width="1.5"></path><path d="M1571.5 553.05L1566.38 690.71" stroke="hsl(228.5, 77.2%, 51.5%)" stroke-width="1.5"></path><path d="M1571.5 553.05L1542.7 409.53" stroke="hsl(228.5, 77.2%, 51.5%)" stroke-width="1.5"></path><path d="M1571.5 553.05L1425.58 670.74" stroke="hsl(228.5, 77.2%, 51.5%)" stroke-width="1.5"></path><path d="M1571.5 553.05L1427.59 409.79" stroke="hsl(228.5, 77.2%, 51.5%)" stroke-width="1.5"></path><path d="M-41.87 509L-41.87 509" stroke="hsl(228.5, 77.2%, 51.5%)" stroke-width="1.5"></path><path d="M-41.87 509L-52.99 692.65" stroke="hsl(228.5, 77.2%, 51.5%)" stroke-width="1.5"></path><path d="M-41.87 509L92.81 655.87" stroke="hsl(228.5, 77.2%, 51.5%)" stroke-width="1.5"></path><path d="M-52.99 692.65L-52.99 692.65" stroke="hsl(228.5, 77.2%, 51.5%)" stroke-width="1.5"></path><path d="M-52.99 692.65L92.81 655.87" stroke="hsl(228.5, 77.2%, 51.5%)" stroke-width="1.5"></path><path d="M-52.99 692.65L54.1 502.22" stroke="hsl(228.5, 77.2%, 51.5%)" stroke-width="1.5"></path><path d="M-52.99 692.65L259.85 654.03" stroke="hsl(228.5, 77.2%, 51.5%)" stroke-width="1.5"></path><path d="M-52.99 692.65L228.65 489.83" stroke="hsl(228.5, 77.2%, 51.5%)" stroke-width="1.5"></path><path d="M-52.99 692.65L341.98 537.4" stroke="hsl(228.5, 77.2%, 51.5%)" stroke-width="1.5"></path><path d="M92.81 655.87L92.81 655.87" stroke="hsl(228.5, 77.2%, 51.5%)" stroke-width="1.5"></path><path d="M92.81 655.87L259.85 654.03" stroke="hsl(228.5, 77.2%, 51.5%)" stroke-width="1.5"></path><path d="M92.81 655.87L228.65 489.83" stroke="hsl(228.5, 77.2%, 51.5%)" stroke-width="1.5"></path><path d="M92.81 655.87L341.98 537.4" stroke="hsl(228.5, 77.2%, 51.5%)" stroke-width="1.5"></path><path d="M228.65 489.83L228.65 489.83" stroke="hsl(228.5, 77.2%, 51.5%)" stroke-width="1.5"></path><path d="M228.65 489.83L341.98 537.4" stroke="hsl(228.5, 77.2%, 51.5%)" stroke-width="1.5"></path><path d="M228.65 489.83L259.85 654.03" stroke="hsl(228.5, 77.2%, 51.5%)" stroke-width="1.5"></path><path d="M228.65 489.83L54.1 502.22" stroke="hsl(228.5, 77.2%, 51.5%)" stroke-width="1.5"></path><path d="M228.65 489.83L395.03 676.14" stroke="hsl(228.5, 77.2%, 51.5%)" stroke-width="1.5"></path><path d="M259.85 654.03L259.85 654.03" stroke="hsl(228.5, 77.2%, 51.5%)" stroke-width="1.5"></path><path d="M259.85 654.03L341.98 537.4" stroke="hsl(228.5, 77.2%, 51.5%)" stroke-width="1.5"></path><path d="M341.98 537.4L341.98 537.4" stroke="hsl(228.5, 77.2%, 51.5%)" stroke-width="1.5"></path><path d="M341.98 537.4L556.52 650.24" stroke="hsl(228.5, 77.2%, 51.5%)" stroke-width="1.5"></path><path d="M707.81 412.05L707.81 412.05" stroke="hsl(228.5, 77.2%, 51.5%)" stroke-width="1.5"></path><path d="M707.81 412.05L804.72 392.91" stroke="hsl(228.5, 77.2%, 51.5%)" stroke-width="1.5"></path><path d="M707.81 412.05L798.09 527.59" stroke="hsl(228.5, 77.2%, 51.5%)" stroke-width="1.5"></path><path d="M639.86 545.73L639.86 545.73" stroke="hsl(228.5, 77.2%, 51.5%)" stroke-width="1.5"></path><path d="M639.86 545.73L556.52 650.24" stroke="hsl(228.5, 77.2%, 51.5%)" stroke-width="1.5"></path><path d="M639.86 545.73L707.81 412.05" stroke="hsl(228.5, 77.2%, 51.5%)" stroke-width="1.5"></path><path d="M804.72 392.91L804.72 392.91" stroke="hsl(228.5, 77.2%, 51.5%)" stroke-width="1.5"></path><path d="M804.72 392.91L798.09 527.59" stroke="hsl(228.5, 77.2%, 51.5%)" stroke-width="1.5"></path><path d="M804.72 392.91L1004.85 374.93" stroke="hsl(228.5, 77.2%, 51.5%)" stroke-width="1.5"></path><path d="M804.72 392.91L639.86 545.73" stroke="hsl(228.5, 77.2%, 51.5%)" stroke-width="1.5"></path><path d="M798.09 527.59L798.09 527.59" stroke="hsl(228.5, 77.2%, 51.5%)" stroke-width="1.5"></path><path d="M853.88 708.9L853.88 708.9" stroke="hsl(228.5, 77.2%, 51.5%)" stroke-width="1.5"></path><path d="M853.88 708.9L990.95 680.96" stroke="hsl(228.5, 77.2%, 51.5%)" stroke-width="1.5"></path><path d="M853.88 708.9L798.09 527.59" stroke="hsl(228.5, 77.2%, 51.5%)" stroke-width="1.5"></path><path d="M1004.85 374.93L1004.85 374.93" stroke="hsl(228.5, 77.2%, 51.5%)" stroke-width="1.5"></path><path d="M1004.85 374.93L1123.18 398.2" stroke="hsl(228.5, 77.2%, 51.5%)" stroke-width="1.5"></path><path d="M1004.85 374.93L1009.52 545.19" stroke="hsl(228.5, 77.2%, 51.5%)" stroke-width="1.5"></path><path d="M1009.52 545.19L1009.52 545.19" stroke="hsl(228.5, 77.2%, 51.5%)" stroke-width="1.5"></path><path d="M1009.52 545.19L1105.73 549.29" stroke="hsl(228.5, 77.2%, 51.5%)" stroke-width="1.5"></path><path d="M1009.52 545.19L990.95 680.96" stroke="hsl(228.5, 77.2%, 51.5%)" stroke-width="1.5"></path><path d="M990.95 680.96L990.95 680.96" stroke="hsl(228.5, 77.2%, 51.5%)" stroke-width="1.5"></path><path d="M990.95 680.96L1105.73 549.29" stroke="hsl(228.5, 77.2%, 51.5%)" stroke-width="1.5"></path><path d="M1111.92 234.9L1111.92 234.9" stroke="hsl(228.5, 77.2%, 51.5%)" stroke-width="1.5"></path><path d="M1111.92 234.9L1123.18 398.2" stroke="hsl(228.5, 77.2%, 51.5%)" stroke-width="1.5"></path><path d="M1111.92 234.9L1004.85 374.93" stroke="hsl(228.5, 77.2%, 51.5%)" stroke-width="1.5"></path><path d="M1111.92 234.9L1294.53 260.37" stroke="hsl(228.5, 77.2%, 51.5%)" stroke-width="1.5"></path><path d="M1111.92 234.9L1295.17 48.76" stroke="hsl(228.5, 77.2%, 51.5%)" stroke-width="1.5"></path><path d="M1111.92 234.9L1238.91 500.45" stroke="hsl(228.5, 77.2%, 51.5%)" stroke-width="1.5"></path><path d="M1111.92 234.9L1105.73 549.29" stroke="hsl(228.5, 77.2%, 51.5%)" stroke-width="1.5"></path><path d="M1123.18 398.2L1123.18 398.2" stroke="hsl(228.5, 77.2%, 51.5%)" stroke-width="1.5"></path><path d="M1105.73 549.29L1105.73 549.29" stroke="hsl(228.5, 77.2%, 51.5%)" stroke-width="1.5"></path><path d="M1105.73 549.29L1123.18 398.2" stroke="hsl(228.5, 77.2%, 51.5%)" stroke-width="1.5"></path><path d="M1308.97 -49.6L1308.97 -49.6" stroke="hsl(228.5, 77.2%, 51.5%)" stroke-width="1.5"></path><path d="M1308.97 -49.6L1295.17 48.76" stroke="hsl(228.5, 77.2%, 51.5%)" stroke-width="1.5"></path><path d="M1308.97 -49.6L1564.85 -90.55" stroke="hsl(228.5, 77.2%, 51.5%)" stroke-width="1.5"></path><path d="M1295.17 48.76L1295.17 48.76" stroke="hsl(228.5, 77.2%, 51.5%)" stroke-width="1.5"></path><path d="M1295.17 48.76L1294.53 260.37" stroke="hsl(228.5, 77.2%, 51.5%)" stroke-width="1.5"></path><path d="M1295.17 48.76L1458.83 243.05" stroke="hsl(228.5, 77.2%, 51.5%)" stroke-width="1.5"></path><path d="M1294.53 260.37L1294.53 260.37" stroke="hsl(228.5, 77.2%, 51.5%)" stroke-width="1.5"></path><path d="M1294.53 260.37L1427.59 409.79" stroke="hsl(228.5, 77.2%, 51.5%)" stroke-width="1.5"></path><path d="M1294.53 260.37L1123.18 398.2" stroke="hsl(228.5, 77.2%, 51.5%)" stroke-width="1.5"></path><path d="M1294.53 260.37L1238.91 500.45" stroke="hsl(228.5, 77.2%, 51.5%)" stroke-width="1.5"></path><path d="M1307.7 659.58L1307.7 659.58" stroke="hsl(228.5, 77.2%, 51.5%)" stroke-width="1.5"></path><path d="M1307.7 659.58L1425.58 670.74" stroke="hsl(228.5, 77.2%, 51.5%)" stroke-width="1.5"></path><path d="M1307.7 659.58L1452.21 489.18" stroke="hsl(228.5, 77.2%, 51.5%)" stroke-width="1.5"></path><path d="M1307.7 659.58L1105.73 549.29" stroke="hsl(228.5, 77.2%, 51.5%)" stroke-width="1.5"></path><path d="M1307.7 659.58L1566.38 690.71" stroke="hsl(228.5, 77.2%, 51.5%)" stroke-width="1.5"></path><path d="M1427.59 409.79L1427.59 409.79" stroke="hsl(228.5, 77.2%, 51.5%)" stroke-width="1.5"></path><path d="M1427.59 409.79L1452.21 489.18" stroke="hsl(228.5, 77.2%, 51.5%)" stroke-width="1.5"></path><path d="M1427.59 409.79L1542.7 409.53" stroke="hsl(228.5, 77.2%, 51.5%)" stroke-width="1.5"></path><path d="M1452.21 489.18L1452.21 489.18" stroke="hsl(228.5, 77.2%, 51.5%)" stroke-width="1.5"></path><path d="M1425.58 670.74L1425.58 670.74" stroke="hsl(228.5, 77.2%, 51.5%)" stroke-width="1.5"></path><path d="M1425.58 670.74L1566.38 690.71" stroke="hsl(228.5, 77.2%, 51.5%)" stroke-width="1.5"></path><path d="M1564.85 -90.55L1564.85 -90.55" stroke="hsl(228.5, 77.2%, 51.5%)" stroke-width="1.5"></path><path d="M1610.28 193.9L1610.28 193.9" stroke="hsl(228.5, 77.2%, 51.5%)" stroke-width="1.5"></path><path d="M1542.7 409.53L1542.7 409.53" stroke="hsl(228.5, 77.2%, 51.5%)" stroke-width="1.5"></path><path d="M1542.7 409.53L1452.21 489.18" stroke="hsl(228.5, 77.2%, 51.5%)" stroke-width="1.5"></path><path d="M1566.38 690.71L1566.38 690.71" stroke="hsl(228.5, 77.2%, 51.5%)" stroke-width="1.5"></path><path d="M1566.38 690.71L1452.21 489.18" stroke="hsl(228.5, 77.2%, 51.5%)" stroke-width="1.5"></path><circle r="25" cx="54.1" cy="502.22" fill="url(#SvgjsRadialGradient1005)"></circle><circle r="25" cx="395.03" cy="676.14" fill="url(#SvgjsRadialGradient1005)"></circle><circle r="25" cx="546.93" cy="540.19" fill="url(#SvgjsRadialGradient1005)"></circle><circle r="25" cx="556.52" cy="650.24" fill="url(#SvgjsRadialGradient1005)"></circle><circle r="25" cx="661.08" cy="652.23" fill="url(#SvgjsRadialGradient1005)"></circle><circle r="25" cx="1156.18" cy="709.79" fill="url(#SvgjsRadialGradient1005)"></circle><circle r="25" cx="1238.91" cy="500.45" fill="url(#SvgjsRadialGradient1005)"></circle><circle r="25" cx="1441.67" cy="-44.25" fill="url(#SvgjsRadialGradient1005)"></circle><circle r="25" cx="1458.83" cy="243.05" fill="url(#SvgjsRadialGradient1005)"></circle><circle r="25" cx="1586.9" cy="68.51" fill="url(#SvgjsRadialGradient1005)"></circle><circle r="25" cx="1571.5" cy="553.05" fill="url(#SvgjsRadialGradient1005)"></circle><circle r="5" cx="-41.87" cy="509" fill="#8b9ad9"></circle><circle r="5" cx="-52.99" cy="692.65" fill="#8b9ad9"></circle><circle r="5" cx="92.81" cy="655.87" fill="#8b9ad9"></circle><circle r="5" cx="228.65" cy="489.83" fill="#8b9ad9"></circle><circle r="5" cx="259.85" cy="654.03" fill="#8b9ad9"></circle><circle r="5" cx="341.98" cy="537.4" fill="#8b9ad9"></circle><circle r="5" cx="707.81" cy="412.05" fill="#8b9ad9"></circle><circle r="5" cx="639.86" cy="545.73" fill="#8b9ad9"></circle><circle r="5" cx="804.72" cy="392.91" fill="#8b9ad9"></circle><circle r="5" cx="798.09" cy="527.59" fill="#8b9ad9"></circle><circle r="5" cx="853.88" cy="708.9" fill="#8b9ad9"></circle><circle r="5" cx="1004.85" cy="374.93" fill="#8b9ad9"></circle><circle r="5" cx="1009.52" cy="545.19" fill="#8b9ad9"></circle><circle r="5" cx="990.95" cy="680.96" fill="#8b9ad9"></circle><circle r="5" cx="1111.92" cy="234.9" fill="#8b9ad9"></circle><circle r="5" cx="1123.18" cy="398.2" fill="#8b9ad9"></circle><circle r="5" cx="1105.73" cy="549.29" fill="#8b9ad9"></circle><circle r="5" cx="1308.97" cy="-49.6" fill="#8b9ad9"></circle><circle r="5" cx="1295.17" cy="48.76" fill="#8b9ad9"></circle><circle r="5" cx="1294.53" cy="260.37" fill="#8b9ad9"></circle><circle r="5" cx="1307.7" cy="659.58" fill="#8b9ad9"></circle><circle r="5" cx="1427.59" cy="409.79" fill="#8b9ad9"></circle><circle r="5" cx="1452.21" cy="489.18" fill="#8b9ad9"></circle><circle r="5" cx="1425.58" cy="670.74" fill="#8b9ad9"></circle><circle r="5" cx="1564.85" cy="-90.55" fill="#8b9ad9"></circle><circle r="5" cx="1610.28" cy="193.9" fill="#8b9ad9"></circle><circle r="5" cx="1542.7" cy="409.53" fill="#8b9ad9"></circle><circle r="5" cx="1566.38" cy="690.71" fill="#8b9ad9"></circle></g><defs><mask id="SvgjsMask1003"><rect width="1440" height="560" fill="#ffffff"></rect></mask><linearGradient x1="15.28%" y1="-39.29%" x2="84.72%" y2="139.29%" gradientUnits="userSpaceOnUse" id="SvgjsLinearGradient1004"><stop stop-color="#0e2a47" offset="0"></stop><stop stop-color="#00459e" offset="1"></stop></linearGradient><radialGradient id="SvgjsRadialGradient1005"><stop stop-color="#ffffff" offset="0.1"></stop><stop stop-color="#1735b3" offset="0.2"></stop><stop stop-color="rgba(23, 53, 179, 0)" offset="1"></stop></radialGradient></defs></svg>